<?xml version="1.0" standalone="no"?><!DOCTYPE svg PUBLIC "-//W3C//DTD SVG 1.1//EN" "http://www.w3.org/Graphics/SVG/1.1/DTD/svg11.dtd"><svg t="1590124040425" class="icon" viewBox="0 0 3135 1024" version="1.1" xmlns="http://www.w3.org/2000/svg" p-id="4453" width="146.953125" height="48" xmlns:xlink="http://www.w3.org/1999/xlink"><defs><style type="text/css"></style></defs><path d="M3105.871947 846.784343V192.688647h-65.510605V154.569868h65.503439V61.676991h-92.890488v65.505828h-38.121167V61.672214H171.63124v65.510605h-38.121167V61.676991h-92.890488v92.895266h65.50105v38.118779H40.612419V846.786731h65.508216v38.121168H40.619585v92.900042h92.892877v-65.510605h38.121167v65.510605h2803.221885v-65.510605h38.121167v65.510605h92.890489V884.907899h-65.503439v-38.121168h65.508216z m-65.508216-757.717914h38.114001v38.11639h-38.114001V89.066429z m-2972.357097 0h38.114001v38.11639H68.006634V89.066429z m38.114001 861.347298H68.006634v-38.118779h38.114001v38.118779z m2841.345441-65.508217v65.508217H199.020678v-65.508217H133.510073v-65.508216H68.001857V220.073308h65.510605V154.569868h65.508216V89.061652h2748.445398v65.510605h65.510605v65.503439h65.508217v599.323986h-65.508217v65.508217h-65.510605z m131.011656 65.508217h-38.114001v-38.118779h38.114001v38.118779z" fill="#054B96" p-id="4454"></path></svg>